<mxfile host="app.diagrams.net" agent="Mozilla/5.0 (Windows NT 10.0; Win64; x64) AppleWebKit/537.36 (KHTML, like Gecko) Chrome/135.0.0.0 Safari/537.36" version="26.2.12">
  <diagram name="Page-1" id="gyuK83swYsOSsPTcguZP">
    <mxGraphModel dx="921" dy="479" grid="1" gridSize="10" guides="1" tooltips="1" connect="1" arrows="1" fold="1" page="1" pageScale="1" pageWidth="850" pageHeight="1100" math="0" shadow="0">
      <root>
        <mxCell id="0" />
        <mxCell id="1" parent="0" />
        <mxCell id="moF_8Jsx-4Iv0Ip0TJ-k-5" value="" style="rounded=0;whiteSpace=wrap;html=1;dashed=1;fillColor=none;strokeColor=light-dark(#000000,#9A9796);" vertex="1" parent="1">
          <mxGeometry x="220" y="180" width="390" height="260" as="geometry" />
        </mxCell>
        <mxCell id="moF_8Jsx-4Iv0Ip0TJ-k-6" value="Data Warehouse" style="rounded=0;whiteSpace=wrap;html=1;" vertex="1" parent="1">
          <mxGeometry x="368" y="160" width="115" height="30" as="geometry" />
        </mxCell>
        <mxCell id="moF_8Jsx-4Iv0Ip0TJ-k-7" value="" style="group" vertex="1" connectable="0" parent="1">
          <mxGeometry x="60" y="160" width="140" height="280" as="geometry" />
        </mxCell>
        <mxCell id="moF_8Jsx-4Iv0Ip0TJ-k-2" value="" style="rounded=0;whiteSpace=wrap;html=1;dashed=1;fillColor=none;strokeColor=light-dark(#000000,#9A9796);" vertex="1" parent="moF_8Jsx-4Iv0Ip0TJ-k-7">
          <mxGeometry y="20" width="140" height="260" as="geometry" />
        </mxCell>
        <mxCell id="moF_8Jsx-4Iv0Ip0TJ-k-3" value="sources" style="rounded=0;whiteSpace=wrap;html=1;" vertex="1" parent="moF_8Jsx-4Iv0Ip0TJ-k-7">
          <mxGeometry x="30" width="80" height="30" as="geometry" />
        </mxCell>
        <mxCell id="moF_8Jsx-4Iv0Ip0TJ-k-8" value="" style="group" vertex="1" connectable="0" parent="1">
          <mxGeometry x="640" y="160" width="140" height="280" as="geometry" />
        </mxCell>
        <mxCell id="moF_8Jsx-4Iv0Ip0TJ-k-9" value="" style="rounded=0;whiteSpace=wrap;html=1;dashed=1;fillColor=none;strokeColor=light-dark(#000000,#9A9796);" vertex="1" parent="moF_8Jsx-4Iv0Ip0TJ-k-8">
          <mxGeometry y="20" width="140" height="260" as="geometry" />
        </mxCell>
        <mxCell id="moF_8Jsx-4Iv0Ip0TJ-k-10" value="sources" style="rounded=0;whiteSpace=wrap;html=1;" vertex="1" parent="moF_8Jsx-4Iv0Ip0TJ-k-8">
          <mxGeometry x="30" width="80" height="30" as="geometry" />
        </mxCell>
      </root>
    </mxGraphModel>
  </diagram>
</mxfile>
